<svg version="1.1" class="Computer" xmlns="http://www.w3.org/2000/svg" x="0px" y="0px" viewBox="0 0 299.8 199.5" xml:space="preserve" style="height: 200px;">
  <rect class="a" x="168.1" y="197.2" width="13.5" height="2.29"></rect>
  <rect class="b" x="181.6" y="197.2" width="2.3" height="2.29"></rect>
  <rect class="b" x="183.9" y="194.9" width="2.3" height="2.27"></rect>
  <rect class="c" x="262.7" y="154" width="37.1" height="8.17"></rect>
  <rect class="d" x="262.7" y="157.6" width="37.1" height="4.6"></rect>
  <path class="e" d="M428.3,212.6v-4.8l2.9-2.9L434,202l2.9-2.8h19.9l2.8,2.8,2.9,2.9,2.9,2.9v4.8H428.3" transform="translate(-165.6 -57.3)"></path>
  <rect class="b" x="296.9" y="147.6" width="2.9" height="2.88"></rect>
  <rect class="b" x="294" y="144.7" width="2.9" height="2.88"></rect>
  <rect class="b" x="291.1" y="141.8" width="2.9" height="2.88"></rect>
  <rect class="b" x="262.7" y="147.6" width="2.9" height="2.88"></rect>
  <rect class="b" x="265.5" y="144.7" width="2.9" height="2.88"></rect>
  <rect class="b" x="268.4" y="141.8" width="2.9" height="2.88"></rect>
  <rect class="f" x="271.3" y="141.8" width="19.8" height="2.88"></rect>
  <rect class="g" x="262.7" y="155.3" width="37.1" height="2.29"></rect>
  <rect class="g" x="278.5" y="155.3" width="6" height="3.73"></rect>
  <rect class="a" x="228" y="159.9" width="34.7" height="2.29"></rect>
  <rect class="h" x="4.6" y="194.9" width="163.1" height="4.56"></rect>
  <rect class="h" x="2.3" y="194.9" width="2.3" height="2.28"></rect>
  <rect class="h" x="167.7" y="194.9" width="2.3" height="2.28"></rect>
  <rect class="g" y="190.3" width="172.2" height="4.56"></rect>
  <rect class="a" y="183.5" width="172.2" height="6.84"></rect>
  <rect class="d" x="4.6" y="194.9" width="163.1" height="2.28"></rect>
  <rect class="i" x="8.3" y="178.9" width="4.6" height="4.56"></rect>
  <rect class="g" x="6.2" y="176.9" width="6.6" height="6.62"></rect>
  <rect class="h" x="4.6" y="180.2" width="1.7" height="3.31"></rect>
  <rect class="h" x="12.8" y="180.2" width="1.7" height="3.31"></rect>
  <rect class="i" x="19.9" y="178.9" width="4.6" height="4.56"></rect>
  <rect class="g" x="17.8" y="176.9" width="6.6" height="6.62"></rect>
  <rect class="h" x="16.1" y="180.2" width="1.7" height="3.31"></rect>
  <rect class="h" x="24.4" y="180.2" width="1.7" height="3.31"></rect>
  <rect class="i" x="31.4" y="178.9" width="4.6" height="4.56"></rect>
  <rect class="g" x="29.4" y="176.9" width="6.6" height="6.62"></rect>
  <rect class="h" x="27.7" y="180.2" width="1.7" height="3.31"></rect>
  <rect class="h" x="36" y="180.2" width="1.7" height="3.31"></rect>
  <rect class="i" x="46.3" y="178.9" width="4.6" height="4.56"></rect>
  <rect class="g" x="44.3" y="176.9" width="83.7" height="6.62"></rect>
  <rect class="h" x="42.6" y="180.2" width="1.7" height="3.31"></rect>
  <rect class="h" x="128" y="180.2" width="1.7" height="3.31"></rect>
  <rect class="i" x="138.3" y="178.9" width="4.6" height="4.56"></rect>
  <rect class="g" x="136.3" y="176.9" width="6.6" height="6.62"></rect>
  <rect class="h" x="134.6" y="180.2" width="1.7" height="3.31"></rect>
  <rect class="h" x="142.9" y="180.2" width="1.7" height="3.31"></rect>
  <rect class="i" x="149.9" y="178.9" width="4.6" height="4.56"></rect>
  <rect class="g" x="147.8" y="176.9" width="6.6" height="6.62"></rect>
  <rect class="h" x="146.2" y="180.2" width="1.7" height="3.31"></rect>
  <rect class="h" x="154.4" y="180.2" width="1.7" height="3.31"></rect>
  <rect class="i" x="161.5" y="178.9" width="4.6" height="4.56"></rect>
  <rect class="g" x="159.4" y="176.9" width="6.6" height="6.62"></rect>
  <rect class="h" x="157.8" y="180.2" width="1.7" height="3.31"></rect>
  <rect class="h" x="166" y="180.2" width="1.7" height="3.31"></rect>
  <rect class="f" y="183.5" width="172.2" height="1.65"></rect>
  <rect class="b" x="186.2" y="192.6" width="2.3" height="2.29"></rect>
  <rect class="b" x="188.5" y="190.3" width="2.3" height="2.27"></rect>
  <rect class="b" x="188.5" y="164.4" width="2.3" height="25.89"></rect>
  <rect class="a" x="170" y="159.9" width="27.9" height="2.29"></rect>
  <rect class="b" x="170" y="159.9" width="2.3" height="2.29"></rect>
  <rect class="b" x="167.7" y="157.6" width="2.3" height="2.27"></rect>
  <rect class="b" x="188.5" y="157.6" width="2.3" height="2.27"></rect>
  <rect class="h" x="197.8" y="153" width="30.1" height="9.13"></rect>
  <rect class="h" x="83.1" y="153" width="30.1" height="9.13"></rect>
  <rect class="h" x="98" y="92.8" width="115.1" height="13.69"></rect>
  <rect class="a" x="93.4" y="4.6" width="124.2" height="88.24"></rect>
  <rect class="a" x="74" y="106.5" width="163.1" height="46.54"></rect>
  <rect class="j" x="107.5" y="18.7" width="96" height="59.91"></rect>
  <polygon class="k" points="223.4 137.1 223.4 132.5 206.4 132.5 206.4 127.9 189.3 127.9 189.3 132.5 172.2 132.5 172.2 137.1 189.3 137.1 189.3 141.6 206.4 141.6 206.4 137.1 223.4 137.1"></polygon>
  <rect class="f" x="172.2" y="127.9" width="17.1" height="4.56"></rect>
  <rect class="l" x="172.2" y="137.1" width="17.1" height="4.56"></rect>
  <rect class="f" x="206.4" y="127.9" width="17.1" height="4.56"></rect>
  <rect class="l" x="206.4" y="137.1" width="17.1" height="4.56"></rect>
  <rect class="b" x="167.7" y="132.5" width="4.6" height="4.56"></rect>
  <rect class="b" x="223.4" y="132.5" width="4.6" height="4.56"></rect>
  <rect class="g" x="107.5" y="14.2" width="96" height="4.56"></rect>
  <rect class="g" x="107.5" y="78.6" width="96" height="4.56"></rect>
  <rect class="g" x="103" y="18.7" width="4.6" height="59.91"></rect>
  <rect class="g" x="203.5" y="18.7" width="4.6" height="59.91"></rect>
  <path class="m" d="M273.2,76.1v55.3h91.3V76.1H273.2M360,78.4v48.4H275.4V78.4Z" transform="translate(-165.6 -57.3)"></path>
  <path class="n" d="M273.2,131.4H360a4.5,4.5,0,0,0,4.5-4.5V76.1h4.6V136h-96Z" transform="translate(-165.6 -57.3)"></path>
  <rect class="f" x="107.5" y="83.2" width="96" height="2.28"></rect>
  <rect class="h" x="91.2" y="2.3" width="2.3" height="2.28"></rect>
  <rect class="h" x="217.6" y="2.3" width="2.3" height="2.28"></rect>
  <rect class="h" x="91.2" y="92.8" width="2.3" height="2.28"></rect>
  <rect class="h" x="217.6" y="92.8" width="2.3" height="2.28"></rect>
  <rect class="h" x="71.7" y="104.2" width="2.3" height="2.28"></rect>
  <rect class="h" x="237.1" y="104.2" width="2.3" height="2.28"></rect>
  <rect class="h" x="71.7" y="153" width="2.3" height="2.28"></rect>
  <rect class="h" x="237.1" y="153" width="2.3" height="2.28"></rect>
  <rect class="f" x="107.6" y="11.9" width="95.9" height="2.28"></rect>
  <rect class="f" x="100.7" y="18.7" width="2.3" height="59.91"></rect>
  <rect class="f" x="208.1" y="18.7" width="2.3" height="59.91"></rect>
  <rect class="f" x="203.5" y="78.6" width="4.6" height="4.56"></rect>
  <rect class="f" x="103" y="78.6" width="4.6" height="4.56"></rect>
  <rect class="f" x="103" y="14.2" width="4.6" height="4.56"></rect>
  <rect class="f" x="203.5" y="14.2" width="4.6" height="4.56"></rect>
  <rect class="g" x="90" y="127.9" width="2.3" height="18.25"></rect>
  <rect class="g" x="83.1" y="127.9" width="2.3" height="18.25"></rect>
  <rect class="g" x="96.8" y="127.9" width="2.3" height="18.25"></rect>
  <rect class="g" x="103.6" y="127.9" width="2.3" height="18.25"></rect>
  <rect class="g" x="110.5" y="127.9" width="2.3" height="18.25"></rect>
  <rect class="g" x="117.3" y="127.9" width="2.3" height="18.25"></rect>
  <rect class="g" x="124.2" y="127.9" width="2.3" height="18.25"></rect>
  <rect class="g" x="131" y="127.9" width="2.3" height="18.25"></rect>
  <rect class="g" x="137.9" y="127.9" width="2.3" height="18.25"></rect>
  <rect class="b" x="140.1" y="127.9" width="2.3" height="18.25"></rect>
  <rect class="b" x="133.3" y="127.9" width="2.3" height="18.25"></rect>
  <rect class="b" x="126.5" y="127.9" width="2.3" height="18.25"></rect>
  <rect class="b" x="119.6" y="127.9" width="2.3" height="18.25"></rect>
  <rect class="b" x="112.8" y="127.9" width="2.3" height="18.25"></rect>
  <rect class="b" x="105.9" y="127.9" width="2.3" height="18.25"></rect>
  <rect class="b" x="99.1" y="127.9" width="2.3" height="18.25"></rect>
  <rect class="b" x="92.2" y="127.9" width="2.3" height="18.25"></rect>
  <rect class="b" x="85.4" y="127.9" width="2.3" height="18.25"></rect>
  <rect class="g" x="144.7" y="127.9" width="2.3" height="18.25"></rect>
  <rect class="g" x="151.5" y="127.9" width="2.3" height="18.25"></rect>
  <rect class="b" x="153.8" y="127.9" width="2.3" height="18.25"></rect>
  <rect class="b" x="147" y="127.9" width="2.3" height="18.25"></rect>
  <rect class="g" x="127.1" y="32.1" width="12.4" height="1.14"></rect>
  <polygon class="k" points="179.7 32.7 179.7 35.4 179.7 37.3 142.5 37.3 142.5 35.4 142.5 32.7 142.5 28.1 179.7 28.1 179.7 32.7"></polygon>
  <rect class="j" x="145.2" y="32.1" width="31.6" height="1.14"></rect>
  <rect class="g" x="121.1" y="45.8" width="18.4" height="1.14"></rect>
  <polygon class="k" points="179.7 46.4 179.7 49.1 179.7 51 142.5 51 142.5 49.1 142.5 46.4 142.5 41.8 179.7 41.8 179.7 46.4"></polygon>
  <rect class="g" x="151.2" y="59.5" width="19.8" height="1.14"></rect>
  <rect class="j" x="310.8" y="103.2" width="3.4" height="1.14" transform="translate(-147.4 194.1) rotate(-45)"></rect>
  <rect class="j" x="311.9" y="102" width="1.1" height="3.42" transform="translate(-147.5 194) rotate(-45)"></rect>
  <rect class="j" x="315.1" y="103.2" width="3.4" height="1.14" transform="translate(-146.1 197.2) rotate(-45)"></rect>
  <rect class="j" x="316.3" y="102" width="1.1" height="3.42" transform="translate(-146.2 197.1) rotate(-45)"></rect>
  <rect class="j" x="319.5" y="103.2" width="3.4" height="1.14" transform="translate(-144.9 200.3) rotate(-45)"></rect>
  <rect class="j" x="320.6" y="102" width="1.1" height="3.42" transform="translate(-144.9 200.2) rotate(-45)"></rect>
  <rect class="j" x="323.9" y="103.2" width="3.4" height="1.14" transform="translate(-143.6 203.4) rotate(-45)"></rect>
  <rect class="j" x="325" y="102" width="1.1" height="3.42" transform="translate(-143.6 203.3) rotate(-45)"></rect>
  <rect class="j" x="328.2" y="103.2" width="3.4" height="1.14" transform="translate(-142.3 206.5) rotate(-45)"></rect>
  <rect class="j" x="329.4" y="102" width="1.1" height="3.42" transform="translate(-142.3 206.5) rotate(-45)"></rect>
  <path class="k" d="M344.2,114H309.3v6.9h34.9Zm1.1,6.9V122H308.1v-9.1h37.2v8Z" transform="translate(-165.6 -57.3)"></path>
  <rect class="j" x="332.6" y="103.2" width="3.4" height="1.14" transform="translate(-141 209.5) rotate(-45)"></rect>
  <rect class="j" x="333.7" y="102" width="1.1" height="3.42" transform="translate(-141.1 209.4) rotate(-45)"></rect>
  <rect class="l" x="93.4" y="90.5" width="124.2" height="2.28"></rect>
  <rect class="f" x="74" y="106.5" width="163.1" height="2.28"></rect>
  <rect class="l" x="74" y="150.8" width="163.1" height="2.28"></rect>
  <rect class="f" x="93.4" y="4.6" width="124.2" height="2.28"></rect>
  <rect class="d" x="93.4" y="90.5" width="2.3" height="2.28"></rect>
  <rect class="d" x="215.3" y="90.5" width="2.3" height="2.28"></rect>
  <rect class="o" x="93.4" y="4.6" width="2.3" height="2.28"></rect>
  <rect class="o" x="215.3" y="4.6" width="2.3" height="2.28"></rect>
  <rect class="o" x="234.8" y="106.5" width="2.3" height="2.28"></rect>
  <rect class="o" x="74" y="106.5" width="2.3" height="2.28"></rect>
  <rect class="d" x="234.8" y="150.8" width="2.3" height="2.28"></rect>
  <rect class="d" x="74" y="150.8" width="2.3" height="2.28"></rect>
  <rect class="o" x="107.5" y="18.7" width="2.3" height="2.28"></rect>
  <rect class="b" x="93.4" y="6.8" width="2.3" height="83.68"></rect>
  <rect class="b" x="215.4" y="6.8" width="2.3" height="83.68"></rect>
  <rect class="b" x="234.8" y="108.8" width="2.3" height="41.98"></rect>
  <rect class="b" x="74" y="108.8" width="2.3" height="41.98"></rect>
  <rect class="d" x="98" y="97.4" width="115.1" height="2.28"></rect>
  <path class="k" d="M278.4,171.6H248.7v9.1h29.7v-9.1" transform="translate(-165.6 -57.3)"></path>
  <rect class="f" x="83.1" y="112" width="29.7" height="2.28"></rect>
  <rect class="h" x="83.1" y="123.4" width="29.7" height="2.28"></rect>
  <rect class="b" x="112.8" y="114.3" width="2.3" height="9.13"></rect>
  <rect class="b" x="80.8" y="114.3" width="2.3" height="9.13"></rect>
  <rect class="h" x="105.4" y="115.4" width="5.1" height="6.84"></rect>
  <rect class="h" x="97.9" y="115.4" width="5.1" height="6.84"></rect>
  <rect class="j" x="86.5" y="117.5" width="2.3" height="2.59"></rect>
  <rect class="j" x="92.2" y="117.5" width="2.3" height="2.59"></rect>
  <path class="k" d="M389,171.6h-9.7v9.1H389v-9.1" transform="translate(-165.6 -57.3)"></path>
  <rect class="h" x="216" y="115.4" width="5.1" height="6.84"></rect>
  <rect class="f" x="213.7" y="112" width="9.7" height="2.28"></rect>
  <rect class="b" x="223.4" y="114.3" width="2.3" height="9.13"></rect>
  <rect class="b" x="211.4" y="114.3" width="2.3" height="9.13"></rect>
  <rect class="h" x="213.7" y="123.4" width="9.7" height="2.28"></rect>
  <path class="k" d="M372.5,171.6h-9.7v9.1h9.7v-9.1" transform="translate(-165.6 -57.3)"></path>
  <rect class="h" x="199.5" y="115.4" width="5.1" height="6.84"></rect>
  <rect class="f" x="197.2" y="112" width="9.7" height="2.28"></rect>
  <rect class="b" x="206.9" y="114.3" width="2.3" height="9.13"></rect>
  <rect class="b" x="194.9" y="114.3" width="2.3" height="9.13"></rect>
  <rect class="h" x="197.2" y="123.4" width="9.7" height="2.28"></rect>
  <rect class="j" x="200.9" y="117.5" width="2.3" height="2.59"></rect>
  <rect class="j" x="217.4" y="117.5" width="2.3" height="2.59"></rect>
  <rect class="d" x="83.1" y="157.6" width="30.1" height="2.28"></rect>
  <rect class="d" x="197.8" y="157.6" width="30.1" height="2.28"></rect>
  <rect class="g" x="93.4" width="124.2" height="4.56"></rect>
  <rect class="g" x="88.9" y="4.6" width="4.6" height="88.24"></rect>
  <rect class="g" x="217.6" y="4.6" width="4.6" height="88.24"></rect>
  <rect class="g" x="93.4" y="92.8" width="124.2" height="4.56"></rect>
  <rect class="g" x="74" y="101.9" width="163.1" height="4.56"></rect>
  <rect class="g" x="74" y="153" width="163.1" height="4.56"></rect>
  <rect class="g" x="69.4" y="106.5" width="4.6" height="46.54"></rect>
  <rect class="g" x="237.1" y="106.5" width="4.6" height="46.54"></rect>
</svg>